<svg width="567" height="453" viewBox="0 0 567 453" fill="none" xmlns="http://www.w3.org/2000/svg">
<path d="M0 156C0 156 63.0428 228.769 114 261.2C131.223 329.845 144.483 363.244 171 419C171 419 44.7857 334.031 22.3929 297.615C0 261.2 0 156 0 156Z" fill="#181818"/>
<path d="M567 156C567 156 503.957 228.769 453 261.2C435.777 329.845 422.517 363.244 396 419C396 419 522.214 334.031 544.607 297.615C567 261.2 567 156 567 156Z" fill="#030303"/>
<path d="M160.234 0L283.117 80.5545L406 0C363.79 108.141 359.801 157.873 406 217.049C365.958 317.527 337.681 367.412 283.117 452C231.544 372.753 203.471 324.439 158 217.049C200.156 175.255 206.637 134.011 160.234 0Z" fill="#030303"/>
<path d="M160.234 0L283.117 80.5545C283.117 80.5545 281.143 457 283.117 452C231.544 372.753 203.471 324.439 158 217.049C200.156 175.255 206.637 134.011 160.234 0Z" fill="#181818"/>
</svg>
