<svg xmlns="http://www.w3.org/2000/svg" width="512" height="512" viewBox="0 0 512 512">
  <rect width="512" height="512" rx="96" fill="#000000"/>
  <g transform="translate(81.920,273.902) scale(0.050145,-0.050145)" fill="#ffffff">
    <path d="M68.1873779296875 0V714H574.8720092773438Q673.792236328125 714 730.4953918457031 667.8107604980469Q787.1985473632812 621.6215209960938 787.1985473632812 541.1076049804688Q787.1985473632812 489.59368896484375 764.6169128417969 451.83673095703125Q742.0352783203125 414.07977294921875 699.3720092773438 392.958251953125Q656.708740234375 371.83673095703125 595.0315551757812 367.35064697265625L605.6011352539062 372.7291259765625Q671.25048828125 372.10760498046875 719.4536437988281 350.1753234863281Q767.6567993164062 328.2430419921875 793.9137573242188 288.7430419921875Q820.1707153320312 249.2430419921875 820.1707153320312 195.86456298828125Q820.1707153320312 135.486083984375 790.792236328125 91.36456298828125Q761.4137573242188 47.2430419921875 706.5890808105469 23.62152099609375Q651.764404296875 0 575.1150512695312 0ZM213.74029541015625 112.17071533203125H553.680908203125Q588.7050170898438 112.17071533203125 614.1354370117188 124.64288330078125Q639.5658569335938 137.11505126953125 653.7133483886719 159.9378662109375Q667.86083984375 182.76068115234375 667.86083984375 213.19110107421875Q667.86083984375 245.2430419921875 654.1456298828125 268.2550964355469Q640.430419921875 291.26715087890625 615.6215209960938 303.9285583496094Q590.8126220703125 316.5899658203125 556.4100341796875 316.5899658203125H213.74029541015625ZM213.74029541015625 419.597412109375H543.2467651367188Q572.6771850585938 419.597412109375 594.1892395019531 431.2588195800781Q615.7012939453125 442.92022705078125 627.6734619140625 464.12152099609375Q639.6456298828125 485.32281494140625 639.6456298828125 514.1317138671875Q639.6456298828125 555.9127807617188 613.1474914550781 578.8710327148438Q586.6493530273438 601.8292846679688 537.4100341796875 601.8292846679688H213.74029541015625Z" transform="translate(0.0,0)"/><path d="M68.1873779296875 0V714H741.8441772460938V601.0723266601562H214.36181640625V417.111328125H701.6011352539062V308.45452880859375H214.36181640625V112.92767333984375H741.8441772460938V0Z" transform="translate(979.0,0)"/><path d="M68.1873779296875 0V714H536.569580078125Q615.08349609375 714 681.7328491210938 689.7569580078125Q748.3822021484375 665.513916015625 798.153076171875 619.0816345214844Q847.9239501953125 572.6493530273438 875.6271057128906 506.4601135253906Q903.3302612304688 440.2708740234375 903.3302612304688 357Q903.3302612304688 290.10760498046875 885.3840637207031 234.2291259765625Q867.4378662109375 178.35064697265625 834.5454711914062 135.03988647460938Q801.653076171875 91.7291259765625 755.7606811523438 61.486083984375Q709.8682861328125 31.2430419921875 654.4758911132812 15.62152099609375Q599.08349609375 0 536.569580078125 0ZM213.74029541015625 112.92767333984375H517.1354370117188Q554.9443359375 112.92767333984375 590.0241088867188 122.84603881835938Q625.1038818359375 132.764404296875 654.4545288085938 152.16885375976562Q683.80517578125 171.57330322265625 705.4804992675781 201.03155517578125Q727.1558227539062 230.48980712890625 739.27734375 269.6372985839844Q751.3988647460938 308.7847900390625 751.3988647460938 357Q751.3988647460938 418.07977294921875 732.9665832519531 463.5918273925781Q714.5343017578125 509.1038818359375 681.9944152832031 539.80517578125Q649.4545288085938 570.5064697265625 607.0639953613281 585.7893981933594Q564.6734619140625 601.0723266601562 517.1354370117188 601.0723266601562H213.74029541015625Z" transform="translate(1892.0,0)"/><path d="M68.1873779296875 0V714H564.4898071289062Q636.5454711914062 714 689.7625427246094 691.3784790039062Q742.9796142578125 668.7569580078125 772.3042907714844 625.2569580078125Q801.6289672851562 581.7569580078125 801.6289672851562 519.2430419921875Q801.6289672851562 469.86456298828125 782.0473327636719 430.2829284667969Q762.4656982421875 390.7012939453125 722.4638366699219 365.4981384277344Q682.4619750976562 340.29498291015625 620.3228149414062 333.05194091796875L623.7847900390625 342.430419921875Q675.8126220703125 339.9443359375 706.5436096191406 325.0120544433594Q737.2745971679688 310.07977294921875 754.9378662109375 281.4443359375Q772.6011352539062 252.80889892578125 785.1150512695312 209.402587890625L845.6011352539062 0H694.1558227539062L639.6975708007812 191.80517578125Q627.6975708007812 234.66973876953125 603.80517578125 255.92669677734375Q579.9127807617188 277.18365478515625 532.5064697265625 277.18365478515625H213.74029541015625V0ZM213.74029541015625 389.48980712890625H537.1911010742188Q569.3506469726562 389.48980712890625 594.7949829101562 400.96197509765625Q620.2393188476562 412.43414306640625 634.7792053222656 436.4461975097656Q649.319091796875 460.458251953125 649.319091796875 497.888671875Q649.319091796875 551.1836547851562 617.1855163574219 576.1279907226562Q585.0519409179688 601.0723266601562 537.1911010742188 601.0723266601562H213.74029541015625Z" transform="translate(2948.0,0)"/><path d="M481.541748046875 -14Q346 -14 244.85064697265625 31.310760498046875Q143.7012939453125 76.62152099609375 88.06585693359375 160.12152099609375Q32.430419921875 243.62152099609375 32.430419921875 357Q32.430419921875 414 46.619659423828125 463.1892395019531Q60.80889892578125 512.3784790039062 88.37661743164062 553.8784790039062Q115.9443359375 595.3784790039062 155.07977294921875 627.6892395019531Q194.2152099609375 660 244.35064697265625 682.5Q294.486083984375 705 353.87847900390625 716.5Q413.2708740234375 728 481.541748046875 728Q617.7050170898438 728 718.6651306152344 682.5Q819.625244140625 637 875.2606811523438 553.6892395019531Q930.8961181640625 470.37847900390625 930.8961181640625 357Q930.8961181640625 300.62152099609375 916.7068786621094 251.12152099609375Q902.5176391601562 201.62152099609375 874.9499206542969 160.12152099609375Q847.3822021484375 118.62152099609375 808.125244140625 86.31076049804688Q768.8682861328125 54 718.8543701171875 31.5Q668.8404541015625 9 609.3265380859375 -2.5Q549.8126220703125 -14 481.541748046875 -14ZM481.541748046875 98.92767333984375Q527.486083984375 98.92767333984375 567.1873779296875 107.10299682617188Q606.888671875 115.2783203125 640.2254028320312 131.0074462890625Q673.5621337890625 146.736572265625 699.2235412597656 169.208740234375Q724.8849487304688 191.680908203125 742.8033142089844 220.3961181640625Q760.7216796875 249.111328125 769.7754821777344 283.6372985839844Q778.8292846679688 318.16326904296875 778.8292846679688 357Q778.8292846679688 435.6734619140625 742.8033142089844 493.6038818359375Q706.77734375 551.5343017578125 640.2254028320312 583.3033142089844Q573.6734619140625 615.0723266601562 481.541748046875 615.0723266601562Q435.597412109375 615.0723266601562 395.7068786621094 606.8970031738281Q355.81634521484375 598.7216796875 322.7903747558594 582.9925537109375Q289.764404296875 567.263427734375 264.1029968261719 544.791259765625Q238.44158935546875 522.319091796875 220.52322387695312 493.6038818359375Q202.6048583984375 464.888671875 193.55105590820312 430.55194091796875Q184.49725341796875 396.2152099609375 184.49725341796875 357Q184.49725341796875 278.94805908203125 220.21246337890625 220.70687866210938Q255.92767333984375 162.4656982421875 322.9796142578125 130.69668579101562Q390.03155517578125 98.92767333984375 481.541748046875 98.92767333984375Z" transform="translate(3948.0,0)"/><path d="M481.7847900390625 -14Q345.2430419921875 -14 244.28292846679688 31.62152099609375Q143.32281494140625 77.2430419921875 87.87661743164062 160.7430419921875Q32.430419921875 244.2430419921875 32.430419921875 357Q32.430419921875 413.37847900390625 46.619659423828125 462.87847900390625Q60.80889892578125 512.3784790039062 87.87661743164062 553.5677185058594Q114.9443359375 594.7569580078125 154.39053344726562 627.0677185058594Q193.83673095703125 659.3784790039062 243.66140747070312 681.8784790039062Q293.486083984375 704.3784790039062 353.5 716.1892395019531Q413.513916015625 728 481.7847900390625 728Q600.2467651367188 728 690.9100341796875 697.0538024902344Q781.5733032226562 666.1076049804688 837.3302612304688 609.1474914550781Q893.0872192382812 552.1873779296875 905.9517822265625 473.51019287109375H749.5064697265625Q736.6419067382812 517.2114868164062 699.5621337890625 548.9804992675781Q662.4823608398438 580.74951171875 606.91650390625 597.9109191894531Q551.3506469726562 615.0723266601562 481.7847900390625 615.0723266601562Q436.46197509765625 615.0723266601562 396.3822021484375 607.0185241699219Q356.30242919921875 598.9647216796875 323.2764587402344 583.5463562011719Q290.25048828125 568.1279907226562 264.4675598144531 545.9665832519531Q238.68463134765625 523.80517578125 221.26626586914062 494.9007263183594Q203.847900390625 465.99627685546875 194.48333740234375 431.53802490234375Q185.1187744140625 397.07977294921875 185.1187744140625 357Q185.1187744140625 277.21893310546875 221.26626586914062 219.59927368164062Q257.41375732421875 161.9796142578125 323.7764587402344 130.45364379882812Q390.13916015625 98.92767333984375 481.7847900390625 98.92767333984375Q551.1076049804688 98.92767333984375 606.1734619140625 116.08908081054688Q661.2393188476562 133.25048828125 698.319091796875 165.01950073242188Q735.3988647460938 196.78851318359375 748.8849487304688 240.48980712890625H905.9517822265625Q893.0872192382812 161.8126220703125 837.208740234375 104.66326904296875Q781.3302612304688 47.513916015625 690.6669921875 16.7569580078125Q600.0037231445312 -14 481.7847900390625 -14Z" transform="translate(5031.0,0)"/><path d="M68.1873779296875 0V714H213.74029541015625V273.54547119140625L167.9796142578125 293.60113525390625L631.86083984375 714H818.1187744140625L488.6326904296875 420.10760498046875Q518.2542114257812 414.7012939453125 542.3080139160156 401.7550964355469Q566.36181640625 388.80889892578125 587.4833374023438 368.6196594238281Q608.6048583984375 348.430419921875 628.1187744140625 319.6734619140625L846.0390014648438 0H673.1317138671875L487.29498291015625 277.69757080078125Q459.59368896484375 319.235595703125 423.7847900390625 324.4109191894531Q387.97589111328125 329.58624267578125 349.30242919921875 295.39886474609375L167.22265625 134.18365478515625L213.74029541015625 238.625244140625V0Z" transform="translate(6089.0,0)"/>
  </g>
</svg>
