<svg xmlns="http://www.w3.org/2000/svg" viewBox="68 -730 6823.0 746" fill="currentColor" aria-label="Bedrock"><g transform="scale(1 -1)"><path transform="translate(0 0)" d="M70 0V714H566Q663 714 719.0 668.0Q775 622 775 542Q775 491 753.5 453.5Q732 416 690.5 394.5Q649 373 589 368L597 373Q662 373 709.5 350.5Q757 328 783.0 288.5Q809 249 809 196Q809 136 780.0 91.5Q751 47 696.5 23.5Q642 0 566 0ZM200 101H547Q586 101 614.0 114.5Q642 128 657.5 153.0Q673 178 673 211Q673 245 658.0 270.0Q643 295 616.0 308.5Q589 322 551 322H200ZM200 416H539Q571 416 594.0 428.5Q617 441 630.0 464.0Q643 487 643 518Q643 564 614.5 588.5Q586 613 532 613H200Z"/><path transform="translate(971.0 0)" d="M70 0V714H734V612H201V413H693V315H201V102H734V0Z"/><path transform="translate(1878.0 0)" d="M70 0V714H534Q612 714 678.0 689.5Q744 665 793.0 618.5Q842 572 869.0 506.0Q896 440 896 357Q896 291 878.5 235.0Q861 179 828.5 135.5Q796 92 751.0 61.5Q706 31 651.0 15.5Q596 0 534 0ZM200 102H517Q557 102 593.5 112.5Q630 123 660.5 143.5Q691 164 713.0 195.0Q735 226 747.5 267.0Q760 308 760 357Q760 420 741.0 467.0Q722 514 689.0 546.5Q656 579 611.5 595.5Q567 612 517 612H200Z"/><path transform="translate(2929.0 0)" d="M70 0V714H560Q630 714 682.5 691.5Q735 669 763.5 625.5Q792 582 792 519Q792 470 773.5 431.0Q755 392 717.0 367.5Q679 343 622 336L623 345Q674 342 703.0 327.0Q732 312 748.0 283.5Q764 255 776 213L837 0H702L646 199Q634 242 611.0 263.0Q588 284 541 284H200V0ZM200 385H535Q570 385 597.5 397.5Q625 410 640.5 436.0Q656 462 656 502Q656 558 622.0 585.0Q588 612 535 612H200Z"/><path transform="translate(3923.0 0)" d="M480 -14Q346 -14 245.5 31.5Q145 77 90.0 160.5Q35 244 35 357Q35 414 49.0 463.0Q63 512 90.5 553.5Q118 595 156.5 627.5Q195 660 245.0 682.5Q295 705 354.0 716.5Q413 728 480 728Q615 728 715.0 682.5Q815 637 870.5 553.5Q926 470 926 357Q926 301 911.5 251.5Q897 202 870.0 160.5Q843 119 804.0 86.5Q765 54 715.5 31.5Q666 9 607.0 -2.5Q548 -14 480 -14ZM480 88Q528 88 569.5 96.5Q611 105 645.5 121.5Q680 138 707.0 161.5Q734 185 752.5 215.0Q771 245 780.5 281.0Q790 317 790 357Q790 438 752.5 498.5Q715 559 645.5 592.5Q576 626 480 626Q432 626 390.5 617.5Q349 609 314.5 592.5Q280 576 253.5 552.5Q227 529 208.5 499.0Q190 469 180.5 433.0Q171 397 171 357Q171 276 208.0 215.5Q245 155 314.5 121.5Q384 88 480 88Z"/><path transform="translate(5004.0 0)" d="M481 -14Q345 -14 245.0 31.5Q145 77 90.0 160.5Q35 244 35 357Q35 413 49.0 462.5Q63 512 90.0 553.5Q117 595 156.0 627.0Q195 659 244.5 681.5Q294 704 353.5 716.0Q413 728 481 728Q596 728 685.0 697.5Q774 667 829.5 610.5Q885 554 899 478H758Q745 523 706.5 556.5Q668 590 610.0 608.0Q552 626 481 626Q433 626 391.5 617.5Q350 609 315.5 593.0Q281 577 254.0 554.0Q227 531 209.0 501.0Q191 471 181.5 435.0Q172 399 172 357Q172 274 209.5 214.0Q247 154 316.0 121.0Q385 88 481 88Q552 88 609.0 106.0Q666 124 705.0 157.5Q744 191 758 236H899Q885 160 829.5 103.5Q774 47 684.5 16.5Q595 -14 481 -14Z"/><path transform="translate(6058.0 0)" d="M70 0V714H200V267L160 285L637 714H805L475 421Q505 416 529.0 403.5Q553 391 574.5 371.0Q596 351 615 322L831 0H677L490 284Q461 329 422.5 334.5Q384 340 343 304L159 141L200 234V0Z"/></g></svg>
